<svg xmlns="http://www.w3.org/2000/svg" viewBox="0 0 256 256" role="img" aria-labelledby="sigil-title">
  <title id="sigil-title">sigil</title>
  <defs>
    <linearGradient id="seal" x1="0" y1="0" x2="1" y2="1">
      <stop offset="0%" stop-color="#2a2a44"/>
      <stop offset="100%" stop-color="#0a0a14"/>
    </linearGradient>
    <radialGradient id="core" cx="0.5" cy="0.5" r="0.5">
      <stop offset="0%" stop-color="#ffffff" stop-opacity="0.95"/>
      <stop offset="60%" stop-color="#5599ff"/>
      <stop offset="100%" stop-color="#1a3d8f"/>
    </radialGradient>
    <radialGradient id="vignette" cx="0.5" cy="0.5" r="0.5">
      <stop offset="70%" stop-color="#000000" stop-opacity="0"/>
      <stop offset="100%" stop-color="#000000" stop-opacity="0.5"/>
    </radialGradient>
  </defs>

  <circle cx="128" cy="128" r="124" fill="url(#seal)"/>
  <circle cx="128" cy="128" r="124" fill="url(#vignette)"/>
  <circle cx="128" cy="128" r="108" fill="none" stroke="#3a3a55" stroke-width="1"/>

  <g stroke="#ffffff" stroke-opacity="0.18" stroke-width="1.5" stroke-linecap="round">
    <line x1="128"   y1="20"  x2="128" y2="92"/>
    <line x1="221.5" y1="74"  x2="159" y2="110"/>
    <line x1="221.5" y1="182" x2="159" y2="146"/>
    <line x1="128"   y1="236" x2="128" y2="164"/>
    <line x1="34.5"  y1="182" x2="97"  y2="146"/>
    <line x1="34.5"  y1="74"  x2="97"  y2="110"/>
  </g>

  <polygon points="128,92 159,110 159,146 128,164 97,146 97,110"
           fill="url(#core)" stroke="#5599ff" stroke-width="2" stroke-linejoin="round"/>
  <circle cx="128" cy="128" r="3" fill="#ffffff"/>

  <circle cx="128"   cy="20"  r="8" fill="#f05032"/>
  <circle cx="221.5" cy="74"  r="8" fill="#cb3837"/>
  <circle cx="221.5" cy="182" r="8" fill="#fbca04"/>
  <circle cx="128"   cy="236" r="8" fill="#2ea44f"/>
  <circle cx="34.5"  cy="182" r="8" fill="#7a52d6"/>
  <circle cx="34.5"  cy="74"  r="8" fill="#326ce5"/>
</svg>
